<svg xmlns="http://www.w3.org/2000/svg" width="1400" height="560" viewBox="0 0 1400 560" role="img" aria-labelledby="title desc">
  <title id="title">Retail ETL Portfolio Project</title>
  <desc id="desc">Hero banner for a public data engineering portfolio project.</desc>
  <defs>
    <linearGradient id="bg" x1="0" y1="0" x2="1" y2="1">
      <stop offset="0%" stop-color="#07111f"/>
      <stop offset="55%" stop-color="#0f172a"/>
      <stop offset="100%" stop-color="#111827"/>
    </linearGradient>
    <linearGradient id="accent" x1="0" y1="0" x2="1" y2="1">
      <stop offset="0%" stop-color="#ff9900"/>
      <stop offset="50%" stop-color="#38bdf8"/>
      <stop offset="100%" stop-color="#22c55e"/>
    </linearGradient>
    <filter id="shadow" x="-20%" y="-20%" width="140%" height="140%">
      <feGaussianBlur stdDeviation="22" result="blur"/>
      <feOffset dx="0" dy="14" in="blur" result="offset"/>
      <feColorMatrix in="offset" type="matrix" values="0 0 0 0 0 0 0 0 0 0.04 0 0 0 0 0.12 0 0 0 0.45 0"/>
    </filter>
  </defs>

  <rect width="1400" height="560" fill="url(#bg)"/>
  <circle cx="230" cy="112" r="120" fill="#ff9900" opacity="0.12" filter="url(#shadow)"/>
  <circle cx="1220" cy="434" r="160" fill="#38bdf8" opacity="0.10" filter="url(#shadow)"/>
  <circle cx="1080" cy="120" r="95" fill="#22c55e" opacity="0.10" filter="url(#shadow)"/>

  <rect x="76" y="72" width="1248" height="416" rx="30" fill="#0b1220" opacity="0.78" stroke="#273449"/>

  <text x="118" y="156" fill="#94a3b8" font-family="Segoe UI, Inter, Arial, sans-serif" font-size="20" letter-spacing="4">PUBLIC DATA ENGINEERING PORTFOLIO</text>
  <text x="118" y="238" fill="#ffffff" font-family="Segoe UI, Inter, Arial, sans-serif" font-size="66" font-weight="800">Retail ETL Command Center</text>
  <text x="118" y="286" fill="#cbd5e1" font-family="Segoe UI, Inter, Arial, sans-serif" font-size="24">Sample Superstore data, dimensional modeling, SQL metrics and an executive Streamlit dashboard.</text>

  <rect x="118" y="336" width="166" height="44" rx="22" fill="#1f2937" stroke="#ff9900"/>
  <text x="140" y="365" fill="#ffdd99" font-family="Segoe UI, Inter, Arial, sans-serif" font-size="18">Public dataset</text>

  <rect x="296" y="336" width="196" height="44" rx="22" fill="#10293a" stroke="#38bdf8"/>
  <text x="317" y="365" fill="#dbeafe" font-family="Segoe UI, Inter, Arial, sans-serif" font-size="18">SQLite / PostgreSQL</text>

  <rect x="506" y="336" width="170" height="44" rx="22" fill="#123b2d" stroke="#22c55e"/>
  <text x="528" y="365" fill="#bbf7d0" font-family="Segoe UI, Inter, Arial, sans-serif" font-size="18">Dashboard ready</text>

  <rect x="832" y="138" width="370" height="246" rx="24" fill="#111827" stroke="#334155"/>
  <rect x="860" y="166" width="314" height="20" rx="10" fill="#1f2937"/>
  <rect x="860" y="204" width="264" height="16" rx="8" fill="#1f2937"/>
  <rect x="860" y="238" width="300" height="16" rx="8" fill="#1f2937"/>
  <rect x="860" y="272" width="220" height="16" rx="8" fill="#1f2937"/>
  <rect x="860" y="306" width="284" height="16" rx="8" fill="#1f2937"/>
  <rect x="860" y="340" width="170" height="16" rx="8" fill="#1f2937"/>

  <circle cx="1104" cy="206" r="10" fill="#ff9900"/>
  <circle cx="1060" cy="240" r="10" fill="#38bdf8"/>
  <circle cx="1142" cy="274" r="10" fill="#22c55e"/>
  <circle cx="1008" cy="308" r="10" fill="#a78bfa"/>
  <circle cx="1114" cy="342" r="10" fill="#f59e0b"/>

  <path d="M832 382h370" stroke="url(#accent)" stroke-width="8" stroke-linecap="round"/>
</svg>
